<?xml version="1.0" standalone="no"?>
<!DOCTYPE svg PUBLIC "-//W3C//DTD SVG 20010904//EN"
 "http://www.w3.org/TR/2001/REC-SVG-20010904/DTD/svg10.dtd">
<svg version="1.0" xmlns="http://www.w3.org/2000/svg"
 width="2295.000000pt" height="2295.000000pt" viewBox="0 0 2295.000000 2295.000000"
 preserveAspectRatio="xMidYMid meet">
<metadata>
Created by potrace 1.14, written by Peter Selinger 2001-2017
</metadata>
<g transform="translate(0.000000,2295.000000) scale(0.100000,-0.100000)"
fill="#000000" stroke="none">
<path d="M12997 22552 c6 -15 5 -16 -12 -2 -11 9 -16 10 -11 3 5 -9 -1 -13
-21 -14 -15 -1 -46 -2 -68 -4 -22 -1 -114 -6 -205 -9 -197 -8 -244 -12 -290
-27 -35 -11 -46 -13 -165 -23 -65 -6 -70 -7 -130 -24 -22 -6 -78 -14 -125 -17
-47 -4 -112 -15 -145 -25 -33 -10 -78 -20 -100 -23 -22 -2 -56 -11 -76 -20
-19 -9 -56 -18 -81 -21 -24 -3 -61 -12 -80 -20 -19 -8 -57 -18 -84 -21 -27 -4
-64 -13 -82 -22 -19 -8 -61 -19 -94 -23 -32 -5 -65 -13 -71 -19 -7 -5 -35 -15
-62 -22 -28 -6 -58 -19 -67 -27 -10 -8 -18 -12 -18 -7 0 4 -7 2 -15 -5 -8 -6
-18 -9 -23 -6 -4 3 -31 -6 -58 -19 -27 -14 -56 -25 -64 -25 -9 0 -33 -9 -54
-19 -21 -11 -52 -23 -69 -27 -18 -3 -36 -10 -42 -14 -5 -5 -37 -16 -70 -25
-33 -10 -63 -22 -66 -27 -3 -5 -18 -11 -32 -14 -29 -5 -58 -17 -97 -39 -14 -8
-32 -15 -41 -15 -9 0 -20 -7 -23 -16 -4 -9 -9 -14 -12 -11 -4 3 -36 -10 -72
-29 -37 -19 -72 -34 -79 -34 -7 0 -13 -4 -13 -8 0 -4 -22 -16 -50 -26 -27 -10
-50 -22 -50 -26 0 -5 -15 -12 -32 -16 -18 -3 -43 -15 -56 -25 -13 -10 -36 -21
-52 -24 -17 -4 -30 -10 -30 -14 0 -5 -20 -16 -45 -25 -25 -10 -45 -21 -45 -26
0 -9 -39 -25 -52 -22 -5 1 -8 -2 -8 -8 0 -9 -25 -24 -112 -71 -16 -8 -33 -20
-36 -25 -4 -5 -18 -15 -32 -21 -14 -7 -43 -24 -65 -38 -22 -14 -56 -33 -75
-42 -19 -10 -42 -26 -52 -35 -10 -10 -24 -18 -31 -18 -8 0 -22 -9 -32 -20 -10
-11 -24 -20 -31 -20 -7 0 -19 -6 -26 -12 -30 -28 -97 -78 -105 -78 -5 0 -16
-8 -25 -17 -9 -10 -27 -26 -40 -35 -13 -10 -80 -60 -150 -113 -70 -52 -132
-95 -137 -95 -6 0 -15 -9 -21 -20 -6 -11 -15 -20 -20 -20 -6 0 -19 -8 -29 -17
-11 -10 -45 -40 -76 -68 -32 -27 -78 -69 -103 -92 -24 -24 -46 -43 -48 -43 -1
0 -23 -20 -48 -45 -26 -25 -51 -45 -56 -45 -6 0 -10 -7 -10 -15 0 -8 -4 -15
-9 -15 -15 0 -176 -154 -271 -259 -36 -39 -94 -103 -130 -141 -36 -38 -76 -82
-89 -97 -13 -15 -47 -53 -75 -84 -54 -60 -86 -99 -136 -164 -16 -22 -40 -53
-53 -69 -12 -16 -20 -30 -17 -30 2 -1 -7 -13 -20 -27 -26 -27 -34 -37 -97
-124 -21 -27 -41 -51 -45 -53 -4 -2 -8 -10 -8 -17 0 -8 -8 -20 -19 -27 -10 -7
-21 -23 -25 -35 -4 -13 -11 -23 -15 -23 -7 0 -57 -67 -71 -95 -21 -42 -64
-105 -71 -105 -5 0 -9 -9 -9 -20 0 -12 -11 -33 -25 -48 -14 -15 -25 -35 -25
-44 0 -10 -4 -18 -9 -18 -5 0 -17 -18 -27 -40 -10 -22 -22 -40 -26 -40 -4 0
-15 -18 -24 -40 -9 -22 -20 -40 -24 -40 -5 0 -12 -10 -16 -22 -4 -13 -16 -36
-27 -53 -48 -70 -55 -82 -62 -105 -4 -14 -14 -33 -23 -43 -9 -10 -17 -27 -19
-39 -2 -11 -12 -32 -22 -47 -10 -14 -24 -43 -30 -63 -7 -21 -17 -38 -22 -38
-5 0 -9 -8 -9 -17 0 -10 -10 -34 -22 -53 -12 -19 -22 -37 -23 -40 -4 -23 -21
-60 -36 -82 -11 -14 -19 -31 -19 -38 0 -7 -9 -25 -21 -41 -11 -16 -17 -29 -14
-29 4 0 -5 -21 -19 -46 -14 -26 -28 -57 -30 -69 -2 -12 -11 -36 -20 -52 -8
-17 -17 -42 -20 -57 -8 -42 -17 -66 -26 -66 -4 0 -11 -17 -15 -37 -3 -21 -15
-55 -25 -75 -11 -20 -21 -47 -22 -60 -2 -13 -7 -29 -11 -35 -5 -7 -5 -13 -2
-13 4 0 0 -7 -8 -15 -9 -8 -18 -33 -22 -55 -4 -22 -13 -46 -20 -53 -7 -7 -16
-31 -19 -53 -4 -23 -14 -54 -22 -69 -8 -16 -20 -61 -26 -102 -6 -40 -14 -73
-18 -73 -5 0 -11 -12 -14 -27 -8 -40 -18 -106 -19 -120 0 -7 -5 -13 -10 -13
-6 0 -7 -3 -4 -7 4 -3 3 -11 -2 -17 -9 -10 -23 -83 -24 -116 0 -8 -6 -22 -13
-30 -13 -15 -17 -34 -29 -125 -3 -27 -10 -54 -15 -60 -4 -5 -8 -13 -8 -18 0
-4 -3 -24 -6 -45 -3 -20 -8 -68 -11 -107 -4 -38 -13 -93 -20 -121 -8 -27 -17
-79 -21 -115 -3 -35 -7 -80 -9 -99 -2 -19 -4 -35 -5 -35 -2 0 -4 -9 -5 -20 -2
-11 -8 -34 -13 -50 -5 -17 -10 -78 -12 -135 -3 -180 -9 -321 -16 -399 -3 -42
-7 -89 -8 -106 -1 -16 -4 -34 -7 -40 -3 -5 -7 -107 -8 -226 -2 -172 0 -218 11
-225 7 -4 186 -9 398 -10 212 -1 391 -2 399 -3 10 -1 12 -13 9 -52 -3 -28 -10
-54 -15 -58 -6 -3 -16 -24 -24 -46 -7 -22 -22 -50 -33 -62 -11 -13 -17 -23
-13 -23 3 0 1 -13 -4 -30 -6 -16 -15 -30 -19 -30 -7 0 -18 -28 -26 -67 -1 -7
-9 -20 -18 -29 -9 -8 -16 -22 -16 -30 0 -8 -12 -38 -27 -66 -50 -97 -61 -123
-68 -155 -3 -17 -13 -37 -21 -44 -8 -6 -14 -19 -14 -28 0 -9 -9 -34 -19 -55
-11 -21 -23 -52 -27 -69 -3 -17 -15 -44 -25 -61 -10 -17 -19 -38 -19 -46 0 -8
-9 -32 -20 -53 -11 -20 -20 -43 -20 -50 0 -7 -8 -28 -19 -47 -10 -19 -21 -49
-25 -67 -4 -17 -16 -48 -27 -69 -10 -21 -19 -48 -19 -59 0 -11 -8 -37 -19 -58
-10 -20 -22 -54 -26 -74 -3 -21 -12 -47 -19 -58 -13 -20 -31 -102 -24 -108 1
-1 -7 -13 -19 -27 -14 -14 -23 -36 -23 -55 0 -16 -8 -46 -19 -65 -10 -20 -21
-54 -24 -77 -4 -23 -13 -58 -21 -77 -13 -30 -30 -110 -31 -141 0 -5 -6 -14
-12 -20 -7 -5 -15 -28 -18 -50 -13 -84 -16 -100 -24 -105 -5 -3 -16 -41 -25
-84 -9 -44 -20 -84 -26 -91 -5 -6 -12 -40 -16 -75 -3 -36 -14 -90 -24 -120
-10 -30 -19 -75 -21 -100 -1 -25 -5 -49 -8 -55 -3 -5 -6 -12 -6 -15 -1 -3 -6
-21 -12 -40 -6 -19 -14 -60 -18 -90 -3 -30 -13 -74 -21 -98 -8 -24 -17 -75
-20 -115 -3 -40 -7 -83 -10 -97 -3 -14 -6 -33 -6 -42 1 -10 -3 -18 -9 -18 -5
0 -8 -3 -7 -7 1 -5 -2 -33 -5 -63 -4 -30 -9 -77 -12 -105 -9 -87 -13 -108 -22
-114 -9 -7 -10 -9 -18 -161 -10 -167 -11 -176 -17 -186 -3 -5 -4 -17 -3 -26 2
-10 0 -18 -4 -18 -4 0 -8 -6 -8 -12 0 -7 -3 -60 -7 -118 -3 -58 -8 -150 -12
-205 -6 -106 -13 -211 -19 -285 -2 -25 -6 -108 -9 -185 -4 -77 -9 -147 -12
-155 -2 -8 -20 -27 -39 -41 -42 -32 -175 -196 -175 -216 0 -7 -6 -16 -14 -19
-8 -3 -18 -19 -21 -34 -4 -16 -22 -43 -42 -60 l-36 -32 -88 91 c-49 50 -93 91
-99 91 -5 0 -10 4 -10 9 0 11 -240 251 -251 251 -5 0 -9 4 -9 9 0 6 -1141
1152 -1253 1258 -6 6 -84 84 -171 172 l-160 161 -1305 -1 c-718 0 -1313 -3
-1321 -7 -13 -6 -15 -61 -15 -405 0 -258 4 -397 10 -397 6 0 4 -4 -3 -8 -9 -7
-6 -16 13 -38 14 -16 36 -41 49 -55 12 -14 30 -28 39 -32 9 -3 17 -13 17 -22
0 -8 7 -15 15 -15 8 0 15 -4 15 -9 0 -5 6 -16 14 -23 90 -84 296 -293 296
-300 0 -4 4 -8 8 -8 12 0 82 -69 82 -80 0 -6 6 -10 13 -10 8 0 20 -11 27 -25
7 -14 16 -25 20 -25 7 0 235 -226 248 -246 4 -6 15 -13 25 -17 9 -3 17 -13 17
-21 0 -8 9 -18 20 -21 11 -3 20 -13 20 -21 0 -8 5 -14 11 -14 12 0 80 -69 104
-105 11 -16 14 -110 16 -452 2 -238 6 -433 9 -433 3 0 5 -19 4 -42 -1 -24 3
-49 9 -55 6 -9 6 -13 -2 -13 -7 0 -9 -5 -4 -12 10 -17 11 -27 18 -143 11 -191
15 -228 26 -241 6 -8 9 -14 6 -14 -3 0 -2 -13 3 -29 4 -16 11 -64 15 -107 4
-43 10 -83 13 -89 4 -5 7 -14 9 -20 1 -5 4 -21 8 -35 3 -14 8 -50 11 -80 3
-30 12 -68 20 -84 8 -17 17 -48 20 -70 3 -23 7 -50 9 -61 2 -11 10 -38 18 -60
8 -22 18 -60 22 -85 3 -24 11 -50 18 -58 12 -15 13 -17 23 -72 3 -19 12 -46
19 -60 7 -14 18 -50 25 -80 7 -30 18 -62 25 -70 7 -8 16 -31 20 -50 4 -19 14
-45 22 -57 9 -13 12 -23 7 -23 -4 0 -3 -5 4 -12 7 -7 12 -21 12 -33 0 -11 9
-31 20 -45 11 -14 20 -34 20 -45 0 -11 12 -42 25 -70 14 -27 25 -55 25 -61 0
-6 7 -17 15 -24 8 -7 17 -27 21 -46 3 -19 12 -38 18 -42 7 -4 18 -26 26 -50 7
-23 19 -47 26 -53 7 -6 16 -23 19 -39 3 -16 13 -34 21 -41 8 -6 14 -17 14 -23
0 -6 11 -28 25 -48 14 -20 25 -43 25 -51 0 -8 9 -22 20 -32 11 -10 20 -24 20
-30 0 -7 9 -23 19 -37 11 -13 23 -37 26 -51 4 -15 11 -27 16 -27 5 0 17 -17
27 -37 9 -21 23 -42 30 -46 6 -4 12 -14 12 -21 0 -8 7 -20 17 -27 9 -8 22 -29
30 -47 7 -17 18 -32 23 -32 6 0 10 -6 10 -14 0 -8 11 -28 25 -44 14 -17 25
-35 25 -41 0 -6 9 -16 20 -23 11 -7 20 -18 20 -24 0 -6 10 -22 22 -36 38 -42
56 -65 68 -88 6 -12 19 -29 28 -39 9 -10 26 -31 37 -46 21 -29 67 -85 98 -117
9 -10 17 -22 17 -27 0 -5 11 -16 25 -25 14 -9 25 -21 25 -26 0 -6 18 -27 40
-49 22 -21 40 -41 40 -44 0 -9 305 -312 390 -387 40 -36 80 -73 89 -82 8 -10
21 -18 28 -18 6 0 15 -9 18 -20 3 -11 13 -20 21 -20 7 0 19 -9 26 -20 7 -11
17 -20 23 -20 6 0 24 -12 41 -27 17 -16 43 -37 58 -48 15 -11 40 -30 54 -42
15 -13 30 -23 34 -23 4 0 20 -12 35 -26 55 -50 60 -54 70 -54 5 0 21 -10 34
-22 14 -13 37 -29 52 -35 15 -7 27 -17 27 -23 0 -5 6 -10 14 -10 8 0 28 -11
44 -25 17 -14 37 -25 45 -25 8 0 17 -6 20 -14 3 -8 22 -22 41 -31 20 -10 36
-21 36 -26 0 -5 8 -9 19 -9 10 0 24 -6 30 -13 6 -8 29 -22 51 -32 22 -10 40
-21 40 -25 0 -5 11 -11 24 -14 14 -3 38 -18 55 -32 17 -14 31 -23 31 -19 0 3
14 -2 30 -12 31 -18 34 -28 30 -118 -2 -60 -15 -180 -20 -180 -1 0 -3 -11 -5
-25 -1 -14 -5 -43 -8 -65 -6 -46 -20 -310 -20 -403 -1 -34 -4 -62 -7 -62 -3 0
-6 -9 -6 -20 0 -11 5 -20 11 -20 6 0 7 -3 0 -8 -5 -4 -12 -23 -14 -42 -2 -19
-5 -557 -7 -1195 -2 -638 -6 -1175 -9 -1192 -7 -38 4 -35 -165 -38 -69 -1
-137 -3 -152 -4 l-28 -1 0 -345 0 -345 8933 0 8934 0 -1 333 c-1 282 -3 336
-16 348 -12 11 -47 14 -155 14 -77 0 -150 4 -162 10 -14 6 -25 22 -28 40 -3
17 -7 633 -10 1370 -4 1288 -6 1420 -21 1475 -4 14 -9 32 -11 40 -5 21 -11 89
-18 205 -5 89 -11 140 -15 140 -5 0 -15 75 -26 195 -7 76 -9 83 -17 97 -4 6
-8 23 -9 37 -1 14 -5 26 -8 26 -3 0 -6 21 -8 48 -3 66 -10 105 -23 138 -12 29
-14 40 -23 129 -7 59 -9 72 -23 105 -6 14 -13 44 -16 67 -8 56 -18 96 -27 108
-5 6 -10 24 -13 40 -8 51 -18 89 -32 120 -7 17 -16 49 -19 72 -7 59 -17 93
-25 93 -4 0 -8 6 -9 13 -5 54 -18 108 -33 139 -11 21 -19 48 -19 60 0 13 -7
33 -15 44 -8 12 -11 24 -8 28 3 3 2 6 -4 6 -6 0 -13 18 -17 40 -3 23 -15 57
-26 78 -11 20 -20 48 -20 62 0 14 -7 35 -14 46 -8 12 -20 43 -27 70 -6 27 -17
56 -24 64 -7 8 -15 31 -18 51 -2 20 -12 47 -21 62 -10 14 -19 32 -20 39 -5 31
-18 58 -27 58 -6 0 -8 4 -4 9 3 5 1 12 -5 16 -5 3 -10 16 -10 28 0 12 -9 33
-20 47 -11 14 -20 31 -20 39 0 8 -11 37 -24 65 -59 126 -76 166 -76 180 0 9
-4 16 -9 16 -5 0 -13 10 -16 23 -11 38 -69 152 -82 160 -7 4 -13 14 -13 22 0
16 -47 111 -72 144 -10 13 -18 31 -18 41 0 9 -9 25 -20 35 -11 10 -20 26 -20
35 0 10 -9 28 -19 42 -11 13 -23 37 -27 52 -3 15 -12 30 -20 33 -7 2 -16 17
-19 33 -3 15 -15 36 -26 46 -10 9 -19 22 -19 29 0 7 -9 20 -20 30 -11 10 -18
20 -15 23 2 3 -9 23 -25 45 -17 23 -30 47 -30 54 0 7 -4 13 -8 13 -5 0 -17 17
-28 37 -10 20 -27 45 -36 55 -10 10 -18 24 -18 31 0 8 -9 22 -20 32 -11 10
-20 23 -20 28 0 6 -9 20 -20 32 -11 12 -23 41 -26 66 l-6 45 213 214 c213 214
263 267 329 349 19 24 43 52 52 62 10 10 20 30 24 45 4 14 13 28 20 31 7 3 16
20 20 38 3 18 14 42 24 52 10 11 21 39 25 62 4 23 13 48 21 56 8 7 16 26 18
42 15 119 19 142 25 139 6 -4 14 76 14 159 1 44 -4 79 -18 160 -13 67 -16 83
-21 115 -3 19 -13 44 -22 54 -13 15 -14 17 -2 11 12 -7 13 -6 4 6 -7 8 -15 30
-19 49 -4 19 -13 42 -20 50 -7 8 -20 33 -29 55 -9 21 -21 42 -27 45 -5 4 -11
17 -14 30 -2 12 -11 30 -19 39 -30 33 -72 81 -91 106 -23 30 -55 63 -81 86
-24 21 -48 52 -52 67 -3 15 -11 246 -17 507 -5 197 -6 212 -24 258 -8 19 -7
27 0 27 8 0 8 4 2 13 -6 6 -10 19 -11 27 0 47 -15 270 -19 300 -2 19 -5 45 -6
58 -1 12 -4 22 -7 22 -4 0 -6 10 -7 23 -4 85 -24 235 -34 257 -1 3 -3 10 -4
15 -2 6 -4 12 -5 15 -5 13 -9 45 -14 117 -6 85 -11 117 -21 133 -7 12 -11 33
-20 114 -3 33 -13 80 -22 104 -8 25 -16 59 -18 76 -10 81 -18 122 -25 131 -5
6 -11 30 -15 55 -6 40 -14 97 -19 125 -1 6 -5 15 -8 21 -7 11 -16 47 -24 99
-6 43 -26 105 -33 105 -4 0 -8 15 -9 33 -3 50 -13 90 -27 112 -6 11 -15 46
-19 78 -4 31 -12 57 -18 57 -6 0 -8 3 -5 7 4 3 3 11 -2 17 -5 6 -12 31 -16 56
-10 61 -9 60 -28 104 -9 21 -17 48 -17 60 0 12 -9 37 -19 57 -11 20 -23 54
-27 75 -4 22 -13 48 -20 59 -7 11 -16 38 -20 60 -4 22 -15 55 -26 73 -10 18
-18 41 -18 52 0 10 -5 31 -12 47 -6 15 -11 31 -10 36 1 4 -2 7 -8 7 -5 0 -10
12 -10 28 0 15 -9 44 -20 65 -11 20 -20 43 -20 50 0 7 -9 31 -20 52 -11 22
-25 58 -31 80 -6 22 -17 47 -24 55 -7 8 -16 32 -20 53 -4 21 -13 44 -21 52 -7
7 -18 32 -23 55 -5 24 -14 46 -20 49 -5 4 -14 26 -19 49 -6 23 -17 53 -25 65
-8 12 -18 37 -21 55 -4 17 -11 32 -15 32 -10 0 -31 46 -31 69 0 10 -9 26 -19
35 -10 10 -22 33 -25 52 -4 19 -11 34 -16 34 -5 0 -14 17 -21 37 -6 20 -20 50
-30 67 -9 17 -19 40 -21 51 -2 10 -11 27 -20 37 -10 10 -18 27 -18 38 0 12 -7
31 -14 43 -15 23 -16 50 -2 64 4 4 182 8 394 8 213 1 392 4 398 8 6 4 11 21
11 40 -1 18 2 38 7 45 4 7 3 12 -2 12 -9 0 -7 83 3 100 3 5 3 10 -2 10 -4 0
-8 18 -8 40 0 22 4 40 8 40 5 0 5 5 1 11 -4 7 -8 78 -10 158 -5 249 -14 465
-19 491 -3 14 -6 49 -7 78 -1 28 -5 52 -8 52 -3 0 -6 10 -6 23 -1 42 -14 186
-19 201 -3 9 -8 24 -12 34 -7 20 -10 41 -18 136 -5 62 -9 93 -20 136 -2 8 -4
15 -6 15 -2 0 -2 6 -13 90 -13 102 -18 125 -26 130 -4 3 -14 38 -21 78 -7 39
-18 84 -25 99 -8 14 -17 50 -20 80 -4 29 -13 67 -22 83 -8 17 -17 48 -19 70
-5 44 -21 104 -33 120 -4 6 -10 31 -13 57 -3 26 -13 58 -22 72 -16 25 -23 45
-24 78 -1 9 -8 23 -16 31 -8 8 -16 25 -19 38 -12 57 -15 68 -25 85 -6 11 -20
44 -30 74 -31 92 -43 123 -62 166 -11 23 -19 49 -19 59 0 9 -8 34 -18 54 -48
94 -66 135 -68 149 -2 8 -12 28 -23 43 -12 16 -21 33 -21 38 0 5 -11 31 -25
57 -14 26 -25 53 -25 61 0 7 -6 16 -14 19 -8 3 -16 18 -20 35 -3 16 -13 41
-23 55 -9 15 -19 36 -20 47 -2 10 -12 30 -22 44 -11 13 -23 37 -26 53 -4 17
-10 30 -15 30 -4 0 -15 17 -24 38 -9 20 -30 57 -46 82 -16 25 -35 56 -42 70
-7 14 -21 34 -30 44 -10 11 -18 28 -18 38 0 10 -4 18 -10 18 -5 0 -20 19 -32
41 -41 74 -58 103 -88 149 -16 25 -35 56 -42 70 -7 14 -21 34 -30 44 -10 11
-18 23 -18 28 0 4 -7 16 -15 26 -50 57 -65 76 -65 82 0 4 -10 18 -22 32 -13
14 -30 35 -38 47 -37 55 -93 126 -101 129 -5 2 -9 9 -9 16 0 7 -11 23 -25 36
-14 13 -25 27 -25 32 0 4 -8 17 -17 27 -10 10 -29 35 -43 55 -14 20 -45 59
-70 86 -39 42 -112 122 -192 211 -13 14 -52 58 -88 98 -36 41 -84 93 -107 116
-24 24 -43 48 -43 54 0 6 -4 11 -10 11 -5 0 -30 19 -54 43 -24 23 -59 55 -77
70 -52 44 -165 146 -224 202 -97 92 -176 160 -196 167 -11 4 -22 14 -25 23 -4
8 -11 15 -18 15 -6 0 -23 10 -38 23 -15 13 -39 32 -53 43 -24 17 -62 45 -120
88 -11 8 -34 27 -51 41 -18 14 -35 25 -38 25 -3 0 -14 8 -25 18 -31 29 -65 53
-88 65 -13 5 -23 14 -23 18 0 5 -17 18 -37 29 -21 11 -56 31 -78 45 -22 14
-55 32 -72 42 -18 9 -33 20 -33 24 0 4 -16 13 -35 19 -19 6 -35 16 -35 21 0 5
-15 16 -32 24 -38 18 -109 57 -123 68 -36 27 -102 67 -112 67 -7 0 -13 4 -13
9 0 5 -17 16 -37 25 -21 9 -45 20 -53 25 -23 15 -248 121 -255 121 -4 0 -13 7
-21 15 -9 8 -24 15 -35 15 -11 0 -36 12 -55 26 -19 15 -34 23 -34 20 0 -4 -20
5 -43 19 -24 14 -49 25 -56 25 -6 0 -24 9 -39 19 -15 11 -44 22 -64 25 -21 4
-42 14 -47 24 -6 9 -11 14 -11 10 0 -8 -103 21 -110 32 -3 4 -18 10 -35 14
-45 10 -49 11 -62 19 -7 5 -13 5 -13 2 0 -4 -7 1 -16 9 -8 9 -25 16 -37 16
-12 0 -38 8 -57 19 -19 10 -49 21 -67 25 -18 4 -50 16 -71 26 -21 10 -50 21
-63 23 -13 2 -40 11 -59 19 -19 9 -55 18 -80 21 -25 3 -61 12 -80 20 -19 9
-56 17 -82 20 -26 3 -62 12 -80 21 -18 8 -46 17 -63 20 -98 15 -115 19 -115
26 0 5 -19 11 -42 15 -24 4 -56 9 -73 11 -16 3 -34 9 -41 14 -6 6 -13 7 -17 4
-3 -3 -14 -1 -24 4 -10 6 -58 13 -108 17 -118 10 -119 10 -130 17 -24 13 -100
24 -227 32 -15 1 -30 4 -33 8 -4 4 -13 4 -21 1 -8 -3 -14 -1 -14 4 0 5 -6 10
-12 10 -7 1 -33 4 -58 7 -25 3 -121 8 -215 11 -224 8 -238 9 -254 19 -10 6
-12 5 -7 -2 4 -7 2 -12 -3 -12 -6 0 -11 4 -11 10 0 5 -7 7 -15 3 -9 -3 -24 2
-33 10 -15 14 -54 16 -274 16 -239 0 -257 -1 -251 -17z m26 -2843 c40 9 504 7
513 -1 3 -4 16 -3 29 2 13 5 26 6 30 2 3 -4 30 -8 58 -9 29 -1 53 -2 55 -3 1
-2 5 -3 10 -4 4 -1 13 -5 19 -9 7 -4 43 -10 80 -12 99 -5 156 -15 172 -28 12
-10 13 -9 6 2 -6 11 -5 12 6 5 15 -9 20 -10 89 -20 65 -9 79 -12 92 -20 7 -4
8 -3 4 4 -5 8 -2 10 8 6 9 -3 16 -10 16 -16 0 -5 5 -6 10 -3 6 3 10 1 10 -4 0
-6 3 -10 8 -9 6 2 109 -12 122 -17 3 -1 18 -7 33 -13 15 -7 46 -14 68 -17 22
-3 60 -14 84 -25 24 -11 49 -20 56 -20 20 0 79 -23 79 -31 0 -4 20 -10 45 -13
25 -4 45 -12 45 -17 0 -6 4 -8 9 -5 5 4 11 2 13 -3 1 -6 17 -12 33 -15 17 -2
30 -5 30 -6 0 -1 9 -3 20 -5 11 -2 21 -9 23 -14 2 -6 11 -11 20 -11 15 0 166
-70 275 -126 26 -14 47 -22 47 -17 0 4 4 4 8 -2 10 -15 49 -35 67 -35 8 0 20
-9 27 -20 7 -11 20 -20 29 -20 8 0 24 -8 35 -17 10 -10 32 -25 49 -33 16 -8
56 -32 87 -52 31 -21 64 -38 73 -38 8 0 15 -7 15 -15 0 -13 13 -20 23 -12 2 1
21 -13 43 -31 21 -18 44 -36 49 -40 45 -32 110 -81 133 -99 15 -13 30 -23 34
-23 4 0 18 -10 31 -22 13 -13 50 -45 82 -73 32 -27 71 -62 86 -77 15 -16 31
-28 36 -28 4 -1 19 -14 33 -30 13 -17 30 -30 37 -30 7 0 13 -6 13 -14 0 -8 9
-17 19 -21 11 -3 23 -15 26 -26 4 -10 12 -19 19 -19 8 0 26 -17 42 -37 16 -21
42 -52 59 -68 16 -17 57 -61 90 -100 33 -38 70 -79 83 -91 12 -12 22 -25 22
-29 0 -7 12 -22 63 -76 9 -10 17 -23 17 -29 0 -5 5 -10 11 -10 5 0 8 -4 5 -9
-3 -5 1 -14 9 -21 19 -15 155 -197 155 -206 0 -3 10 -20 22 -37 13 -18 23 -35
23 -39 0 -4 7 -15 15 -25 8 -10 21 -29 28 -43 7 -14 26 -45 42 -70 16 -25 39
-64 51 -87 12 -24 24 -43 28 -43 4 0 8 -12 9 -27 1 -15 8 -31 16 -35 11 -6 19
-24 31 -68 0 -3 11 -20 22 -39 12 -19 20 -38 18 -41 -3 -4 4 -15 15 -25 11
-10 20 -27 20 -37 0 -21 16 -56 35 -75 7 -7 16 -33 19 -58 4 -25 11 -43 15
-40 5 2 15 -22 22 -55 7 -33 16 -60 20 -60 8 0 19 -33 26 -75 3 -16 8 -32 11
-35 14 -11 32 -56 36 -93 3 -21 11 -46 18 -55 11 -13 11 -15 -2 -7 -13 8 -13
6 -1 -8 7 -9 19 -49 27 -89 8 -39 17 -74 21 -77 9 -7 12 -20 19 -70 4 -34 10
-70 14 -81 1 -3 2 -8 1 -12 0 -5 3 -8 7 -8 5 0 9 -6 9 -12 0 -7 3 -38 7 -68 3
-30 8 -82 11 -114 3 -33 8 -62 12 -65 5 -3 9 -15 10 -26 1 -11 5 -36 8 -55 5
-30 16 -271 18 -407 0 -24 4 -43 9 -43 11 0 6 -23 -7 -32 -7 -5 -6 -8 0 -8 7
0 10 -33 10 -90 -1 -56 2 -87 8 -83 6 4 7 1 1 -8 -5 -8 -9 -30 -9 -49 0 -19
-4 -41 -9 -49 -6 -9 -5 -12 2 -7 7 4 10 -4 10 -21 -1 -45 1 -55 12 -48 6 3 10
1 10 -5 0 -6 12 -9 28 -7 15 2 37 0 50 -4 12 -5 22 -5 22 -1 0 4 20 7 45 7 25
1 45 -3 45 -8 0 -4 5 -5 12 -1 17 11 88 12 116 2 12 -4 22 -4 22 0 0 4 20 7
45 7 25 1 45 -3 45 -8 0 -4 4 -5 10 -2 20 12 50 14 50 2 0 -8 3 -8 8 -2 9 12
92 15 92 3 0 -5 5 -6 12 -2 17 11 118 12 118 1 0 -4 5 -5 12 -1 16 10 117 11
146 2 12 -4 22 -4 22 0 0 11 64 8 72 -3 5 -7 8 -7 8 0 0 6 34 10 82 9 92 -1
148 -21 148 -53 0 -11 4 -21 8 -23 4 -1 18 -23 30 -48 12 -25 28 -56 36 -70
38 -67 66 -130 59 -130 -4 -1 3 -10 17 -21 14 -12 24 -24 23 -28 -5 -11 9 -45
28 -73 11 -14 19 -33 19 -42 0 -9 6 -19 14 -22 12 -5 28 -45 30 -77 1 -4 6
-11 12 -15 7 -4 18 -27 25 -52 7 -25 19 -51 28 -57 8 -7 11 -13 7 -13 -5 0 -4
-6 1 -12 6 -7 13 -26 17 -42 4 -15 14 -35 21 -43 8 -8 15 -23 15 -33 0 -24 25
-71 33 -63 4 3 7 -8 7 -25 0 -17 6 -37 14 -45 8 -7 20 -34 27 -58 7 -24 18
-49 24 -54 7 -6 16 -26 20 -45 4 -19 17 -55 28 -80 11 -25 22 -56 24 -69 2
-13 11 -33 19 -46 8 -13 17 -36 20 -51 7 -39 27 -84 37 -84 5 0 7 -6 4 -12 -2
-7 2 -28 9 -45 7 -18 10 -33 7 -33 -4 0 1 -6 11 -13 9 -7 18 -26 20 -42 1 -17
10 -46 19 -65 14 -30 19 -51 31 -118 1 -8 9 -18 17 -23 8 -5 10 -9 6 -9 -4 0
-4 -8 2 -17 5 -10 11 -36 14 -58 7 -52 17 -76 28 -70 4 3 6 -4 4 -15 -2 -11
-1 -20 3 -20 4 0 8 -15 9 -34 1 -19 8 -45 16 -58 8 -13 18 -43 22 -68 4 -25
14 -58 22 -74 9 -16 17 -50 20 -75 2 -25 13 -70 23 -98 11 -29 17 -53 14 -53
-3 0 -2 -6 3 -12 4 -7 7 -27 8 -44 0 -17 5 -37 11 -45 5 -8 10 -21 9 -29 0 -8
3 -17 6 -20 4 -3 10 -29 14 -58 6 -60 19 -97 35 -107 8 -5 8 -11 -1 -21 -6 -8
-7 -14 -2 -14 5 0 9 -10 10 -22 2 -54 16 -143 23 -148 7 -5 13 -37 26 -140 3
-19 5 -45 6 -57 0 -13 3 -23 7 -23 4 0 8 -8 9 -17 2 -23 10 -58 12 -58 1 0 4
-22 6 -50 4 -63 24 -164 36 -189 8 -14 7 -17 -3 -11 -8 6 -10 4 -3 -6 5 -8 9
-32 11 -54 1 -22 5 -74 8 -115 4 -41 7 -87 8 -102 1 -14 5 -24 9 -22 4 2 9 0
13 -6 3 -5 1 -10 -5 -10 -6 0 -8 -5 -3 -12 9 -14 9 -14 18 -183 6 -126 12
-207 16 -215 1 -3 2 -18 4 -35 1 -16 3 -32 5 -35 1 -3 3 -32 5 -65 12 -179 12
-216 1 -229 -6 -8 -33 -17 -61 -21 -54 -6 -90 -12 -90 -15 0 -1 -9 -3 -20 -5
-117 -19 -136 -22 -145 -25 -3 -1 -8 -2 -12 -1 -5 0 -8 -3 -8 -8 0 -8 -26 -18
-80 -28 -14 -2 -32 -10 -40 -17 -8 -8 -32 -19 -52 -27 -20 -7 -35 -16 -32 -20
2 -4 -9 -10 -25 -14 -27 -6 -45 -18 -106 -72 -11 -10 -22 -18 -25 -18 -3 0
-14 -9 -26 -20 -11 -11 -39 -37 -62 -57 -23 -20 -42 -41 -42 -47 0 -6 -3 -10
-7 -9 -11 3 -73 -57 -73 -70 0 -5 -9 -12 -20 -15 -11 -3 -20 -12 -20 -21 0 -9
-4 -16 -10 -16 -12 0 -160 -149 -160 -161 0 -5 -3 -9 -7 -10 -5 0 -20 -3 -35
-5 -26 -4 -48 10 -135 94 -13 12 -28 22 -33 22 -6 0 -10 5 -10 10 0 6 -7 13
-16 17 -22 8 -77 60 -80 75 -4 15 -8 34 -18 68 -3 14 -8 41 -10 60 -3 19 -5
35 -6 35 -1 0 -3 36 -5 80 -5 103 -12 150 -25 175 -6 11 -8 20 -4 20 3 0 2 6
-3 13 -5 6 -10 28 -11 47 -4 50 -24 140 -32 140 -3 0 -7 17 -8 39 -4 54 -8 75
-26 113 -9 18 -17 42 -19 53 -8 41 -20 80 -29 91 -9 12 -16 38 -23 88 -2 16
-8 32 -13 35 -10 7 -22 36 -28 71 -3 14 -13 36 -22 50 -9 14 -17 27 -17 30 -4
30 -20 66 -33 78 -9 7 -11 10 -3 7 10 -6 9 -1 -2 16 -9 13 -16 26 -15 29 3 13
-15 50 -23 50 -6 0 -8 4 -4 9 3 5 1 12 -5 16 -6 4 -8 10 -5 14 2 4 -7 23 -20
41 -14 19 -25 39 -25 46 0 7 -6 19 -12 26 -7 7 -31 49 -52 93 -21 44 -45 83
-52 88 -7 4 -11 13 -8 20 2 7 -7 23 -21 35 -14 12 -25 29 -25 37 0 8 -9 23
-20 32 -11 10 -20 23 -20 29 0 6 -7 17 -15 24 -9 7 -22 27 -31 45 -8 18 -24
42 -34 53 -11 12 -20 26 -20 32 0 5 -3 10 -7 10 -5 1 -24 24 -43 51 -19 28
-46 62 -60 75 -14 13 -21 24 -17 24 4 0 -11 17 -33 39 -22 21 -40 41 -40 45 0
9 -38 53 -112 128 -36 37 -65 68 -63 68 2 0 -13 16 -32 35 -19 19 -39 35 -44
35 -5 0 -9 4 -9 8 0 11 -27 38 -86 87 -27 22 -61 52 -77 68 -16 15 -31 27 -34
27 -3 0 -15 9 -27 21 -47 45 -106 97 -106 92 0 -2 -18 9 -39 26 -21 17 -44 31
-50 31 -5 0 -15 9 -21 20 -6 11 -18 20 -28 20 -9 0 -23 9 -30 20 -7 11 -19 20
-27 20 -7 0 -20 9 -27 19 -8 11 -26 23 -41 26 -15 4 -27 11 -27 16 0 5 -17 17
-37 27 -21 9 -41 22 -46 29 -4 6 -20 14 -36 18 -16 3 -35 13 -42 21 -7 9 -30
23 -51 31 -21 8 -38 19 -38 24 0 5 -6 9 -14 9 -7 0 -29 11 -49 24 -19 13 -38
22 -41 19 -3 -3 -12 0 -21 7 -8 7 -15 9 -15 4 0 -5 -5 -2 -10 7 -5 8 -28 22
-52 29 -24 7 -50 20 -59 27 -8 7 -21 13 -27 13 -7 0 -35 12 -63 26 -27 15 -61
27 -74 27 -14 0 -25 3 -25 7 0 8 -62 32 -90 35 -8 1 -33 10 -55 21 -22 11 -50
19 -62 18 -13 0 -23 2 -23 5 0 9 -57 33 -88 36 -54 5 -107 17 -112 25 -5 7
-43 15 -113 24 -15 2 -35 10 -44 17 -10 8 -14 9 -10 2 5 -8 -2 -7 -20 2 -16 8
-57 16 -93 19 -36 2 -67 5 -70 6 -3 1 -15 1 -27 0 -12 -1 -30 3 -40 8 -37 20
-74 23 -406 36 -48 1 -90 6 -94 9 -3 4 -12 2 -20 -4 -7 -6 -13 -8 -13 -3 0 11
-100 11 -117 1 -6 -4 -14 -3 -17 2 -3 5 -14 7 -24 5 -9 -2 -23 0 -31 5 -20 13
-18 71 2 86 9 7 14 14 11 18 -5 5 11 40 33 67 6 8 14 26 16 40 10 54 20 80 28
80 5 0 8 3 7 8 -1 4 2 18 5 32 4 14 8 34 10 45 1 11 6 26 10 33 5 7 4 12 -3
12 -6 0 -4 10 5 24 42 64 38 534 -5 591 -4 6 -10 30 -14 54 -4 24 -13 55 -20
70 -8 14 -17 44 -20 66 -4 21 -12 46 -20 55 -7 8 -19 31 -27 50 -7 19 -20 43
-28 52 -8 9 -16 26 -18 37 -1 12 -12 30 -23 41 -11 11 -20 26 -20 33 0 8 -9
22 -20 32 -11 10 -20 22 -20 26 0 4 -19 28 -42 53 -24 25 -56 62 -73 82 -31
38 -37 44 -83 82 -15 12 -49 43 -77 67 -27 25 -55 45 -62 45 -6 0 -13 4 -15
10 -3 10 -73 51 -130 76 -21 9 -38 19 -38 23 0 5 -18 14 -40 21 -22 7 -40 18
-40 23 0 6 -3 7 -7 4 -3 -4 -11 -3 -17 2 -6 5 -28 12 -49 15 -21 3 -52 13 -69
22 -16 8 -40 17 -51 20 -35 7 -91 15 -107 16 -8 0 -21 5 -27 11 -9 6 -13 6
-13 -2 0 -7 -5 -9 -12 -4 -7 4 -20 9 -28 11 -50 11 -228 15 -290 6 -19 -3 -45
-5 -58 -5 -13 1 -21 -3 -18 -7 3 -5 -1 -9 -9 -9 -8 0 -11 5 -8 10 4 6 1 7 -8
1 -8 -4 -18 -9 -24 -10 -5 -1 -28 -5 -50 -8 -75 -12 -89 -15 -97 -28 -4 -7 -8
-9 -8 -5 0 4 -8 3 -17 -2 -10 -5 -35 -12 -56 -15 -33 -5 -73 -22 -87 -36 -3
-3 -12 -6 -20 -8 -29 -5 -59 -25 -53 -35 3 -6 1 -7 -5 -3 -6 3 -13 2 -17 -4
-4 -6 -10 -8 -15 -5 -4 2 -18 -3 -31 -13 -21 -16 -59 -35 -66 -33 -3 1 -13 -8
-67 -56 -14 -13 -28 -23 -31 -23 -3 0 -13 -8 -23 -17 -30 -29 -77 -67 -98 -80
-10 -6 -18 -16 -17 -21 2 -6 -6 -13 -16 -17 -10 -3 -23 -17 -29 -30 -6 -14
-16 -25 -22 -25 -5 0 -10 -7 -10 -15 0 -8 -4 -15 -10 -15 -5 0 -10 -7 -10 -16
0 -8 -4 -12 -10 -9 -5 3 -10 2 -10 -4 0 -5 -12 -23 -28 -40 -15 -17 -41 -56
-57 -88 -17 -31 -36 -63 -42 -71 -7 -7 -13 -20 -13 -28 0 -8 -9 -24 -20 -36
-11 -12 -20 -28 -20 -35 0 -8 -11 -39 -24 -71 -13 -32 -26 -71 -28 -87 -3 -17
-12 -48 -22 -70 -11 -25 -18 -69 -19 -117 -1 -43 -4 -78 -7 -78 -3 0 -6 -15
-7 -32 -1 -18 -3 -43 -4 -55 -1 -13 -5 -23 -10 -23 -5 0 -4 -12 1 -26 7 -16 7
-23 0 -19 -7 4 -7 -2 0 -19 6 -17 6 -27 -1 -32 -7 -4 -7 -10 0 -18 6 -7 12
-39 15 -71 3 -33 7 -71 10 -85 3 -14 7 -41 9 -60 2 -19 9 -45 16 -58 6 -12 9
-22 6 -22 -4 0 -3 -6 2 -12 4 -7 9 -22 10 -33 4 -28 24 -75 32 -75 4 0 8 -8 9
-17 4 -38 30 -108 32 -88 0 6 8 -10 17 -35 8 -25 20 -48 27 -52 8 -6 7 -8 -1
-8 -7 0 -13 -7 -13 -16 0 -8 -4 -12 -10 -9 -5 3 -10 2 -10 -3 0 -5 -41 -9 -91
-8 -50 0 -92 -1 -94 -3 -2 -2 -62 -5 -132 -7 -234 -6 -323 -13 -373 -29 -33
-10 -63 -15 -145 -21 -44 -3 -94 -12 -112 -19 -17 -7 -34 -11 -37 -7 -3 3 -6
1 -6 -5 0 -6 -8 -10 -17 -9 -29 1 -143 -24 -143 -33 0 -4 -10 -7 -22 -8 -42
-1 -103 -15 -115 -25 -7 -6 -13 -7 -13 -3 0 4 -7 2 -14 -5 -8 -6 -30 -14 -48
-17 -18 -3 -49 -13 -70 -24 -20 -10 -48 -19 -62 -19 -13 0 -31 -7 -40 -15 -8
-9 -18 -15 -21 -15 -17 2 -71 -18 -145 -53 -47 -23 -87 -42 -90 -42 -35 -11
-70 -29 -70 -35 0 -4 -13 -10 -30 -13 -16 -4 -42 -14 -56 -24 -15 -9 -34 -18
-42 -19 -8 -2 -24 -12 -36 -23 -12 -12 -27 -21 -32 -21 -5 0 -26 -11 -47 -25
-20 -14 -37 -23 -37 -19 0 3 -14 -6 -31 -20 -17 -14 -39 -26 -50 -26 -10 0
-19 -4 -19 -10 0 -5 -18 -19 -40 -30 -23 -12 -43 -27 -47 -35 -3 -8 -9 -13
-13 -10 -5 3 -14 0 -22 -7 -16 -16 -87 -70 -109 -83 -35 -21 -75 -51 -95 -70
-12 -11 -33 -29 -48 -39 -15 -11 -37 -29 -50 -40 -12 -12 -44 -39 -71 -61 -27
-22 -122 -114 -211 -205 -192 -195 -204 -208 -204 -220 0 -5 -6 -13 -13 -17
-8 -4 -22 -21 -33 -38 -10 -16 -27 -36 -36 -43 -10 -7 -18 -20 -18 -28 0 -8
-6 -14 -12 -14 -7 0 -21 -12 -30 -28 -37 -58 -43 -67 -51 -73 -5 -3 -9 -10
-10 -15 -1 -5 -5 -8 -8 -7 -3 1 -11 -14 -18 -33 -7 -19 -17 -32 -22 -29 -5 4
-9 -3 -9 -14 0 -12 -4 -21 -10 -21 -5 0 -10 -6 -10 -14 0 -8 -7 -17 -16 -20
-8 -3 -12 -10 -9 -16 3 -5 1 -10 -4 -10 -6 0 -10 -6 -9 -12 2 -7 -2 -12 -9
-11 -6 1 -16 -12 -22 -29 -6 -18 -20 -41 -31 -53 -11 -11 -21 -30 -23 -41 -1
-12 -11 -29 -20 -38 -9 -10 -17 -24 -17 -32 0 -7 -7 -22 -15 -31 -8 -10 -15
-21 -15 -25 0 -4 -9 -22 -20 -40 -11 -18 -26 -49 -35 -68 -9 -19 -20 -37 -25
-40 -5 -3 -12 -21 -15 -40 -3 -19 -11 -38 -18 -42 -7 -4 -8 -8 -4 -8 5 0 2 -7
-6 -15 -9 -8 -18 -33 -22 -55 -4 -22 -10 -38 -15 -35 -7 5 -18 -23 -27 -69 -2
-11 -10 -27 -18 -36 -8 -9 -20 -40 -26 -70 -6 -30 -18 -64 -25 -75 -8 -11 -14
-29 -14 -42 0 -12 -4 -32 -9 -45 -5 -13 -9 -27 -9 -32 0 -5 -5 -12 -10 -15 -9
-5 -18 -40 -27 -107 -2 -12 -8 -31 -15 -43 -14 -26 -19 -50 -22 -103 -1 -22
-6 -42 -10 -44 -5 -3 -6 -9 -3 -14 3 -4 -2 -23 -10 -43 -8 -19 -16 -54 -17
-78 -2 -24 -7 -49 -11 -56 -4 -6 -3 -14 3 -18 6 -4 7 -11 4 -17 -4 -6 -9 -23
-11 -37 -8 -51 -10 -66 -12 -66 -5 0 -19 -145 -20 -198 -1 -16 -5 -26 -11 -22
-6 3 -14 -4 -19 -17 -6 -13 -10 -19 -10 -14 -1 5 -12 -3 -26 -18 -13 -14 -28
-26 -32 -26 -5 0 -17 -11 -27 -25 -10 -14 -25 -25 -32 -25 -8 0 -14 -4 -14 -8
0 -12 -97 -82 -114 -82 -8 0 -102 87 -209 193 -107 105 -209 203 -228 217 -18
14 -43 35 -56 48 -13 12 -27 22 -31 22 -4 0 -15 9 -25 20 -9 11 -26 20 -37 20
-11 0 -20 5 -20 10 0 6 -7 10 -16 10 -8 0 -12 5 -9 10 3 6 -3 10 -14 10 -11 0
-37 10 -58 22 -36 22 -48 26 -85 30 -10 1 -18 6 -18 11 0 5 -6 7 -14 4 -8 -3
-16 -2 -18 3 -3 9 -36 18 -103 27 -22 3 -44 9 -49 14 -6 5 -15 4 -23 -2 -7 -7
-13 -7 -13 -2 0 5 -15 10 -33 11 -102 7 -107 13 -101 120 2 48 6 146 9 217 7
179 14 263 30 335 3 14 8 57 10 95 2 39 7 95 10 125 4 30 7 61 8 68 0 6 3 12
7 12 3 0 6 8 7 18 0 9 4 44 7 77 3 33 7 88 8 122 2 35 6 63 9 63 3 0 6 7 7 15
1 8 3 22 4 30 1 8 4 15 7 15 3 0 7 21 9 48 3 46 7 76 17 120 3 12 7 31 9 42 3
11 7 24 10 29 4 5 9 42 12 82 3 41 8 77 10 81 7 11 14 43 31 133 8 44 21 94
29 112 8 17 16 55 19 84 3 28 11 59 18 67 10 13 9 14 -3 7 -11 -6 -11 -4 2 11
9 11 20 42 23 69 10 82 14 98 22 104 10 8 14 23 28 116 3 21 10 42 15 45 9 6
31 90 24 90 -3 0 3 15 12 32 9 18 22 55 29 83 19 78 20 80 28 86 4 3 10 22 12
41 3 20 14 60 25 88 11 28 23 68 26 88 3 21 9 39 14 42 4 3 13 23 20 45 7 22
18 54 25 70 12 26 27 69 30 85 4 21 18 50 23 50 4 0 9 12 10 27 1 15 11 45 21
67 11 23 25 60 31 83 6 23 14 45 19 48 5 3 14 27 21 55 7 27 16 50 20 50 8 0
23 39 21 54 -1 4 4 14 10 22 6 8 8 14 5 14 -4 0 3 10 14 22 11 12 19 27 16 33
-2 6 2 19 10 29 7 11 11 23 7 29 -3 6 -1 7 5 3 7 -4 12 -4 13 1 3 33 12 61 30
89 11 18 22 46 25 61 3 15 11 31 17 35 7 4 8 8 2 8 -5 0 -4 4 3 8 7 5 14 17
16 28 2 10 16 42 30 70 14 29 26 57 26 63 0 6 4 11 10 11 5 0 13 12 16 28 4
15 18 42 31 60 13 17 22 32 19 32 -4 0 47 105 74 150 5 8 15 30 22 48 7 17 16
32 20 32 3 0 9 13 13 29 3 15 14 37 24 48 10 10 24 30 31 42 8 17 15 20 23 12
7 -7 14 -7 24 0 9 8 13 8 13 0 0 -7 8 -8 23 -2 13 5 29 6 36 1 7 -4 28 -4 47
0 20 5 34 4 34 -1 0 -6 8 -6 18 -2 21 11 43 10 61 -1 7 -5 16 -5 20 0 8 12 81
14 81 2 0 -5 9 -4 19 2 14 7 22 7 27 -1 4 -8 9 -7 15 2 6 10 9 10 9 2 0 -7 6
-10 13 -8 26 10 88 12 93 4 3 -5 14 -4 25 1 13 8 19 7 19 0 0 -6 4 -8 10 -5
16 10 50 14 50 7 0 -9 64 -7 79 2 5 4 12 2 16 -3 4 -7 15 -7 32 0 14 5 29 6
32 2 7 -10 52 -10 68 0 6 4 15 2 19 -4 4 -8 9 -7 15 2 6 10 9 10 9 2 0 -7 6
-10 13 -8 26 10 88 12 93 3 3 -4 10 -6 15 -3 15 10 49 14 49 7 0 -4 11 -7 25
-7 14 0 25 3 25 7 0 4 7 5 15 2 36 -14 40 8 40 245 0 127 4 231 8 231 4 0 3 8
-2 18 -5 10 -6 23 -2 30 4 6 7 36 6 67 0 30 2 55 5 55 3 0 5 17 4 38 0 20 3
43 9 50 6 8 5 12 -3 12 -9 0 -9 4 1 17 12 15 12 16 -1 8 -12 -7 -13 -6 -3 6
10 12 23 107 26 197 1 17 4 32 7 32 4 0 7 6 8 13 1 6 4 26 7 42 5 30 14 93 19
150 2 17 10 47 20 69 9 21 16 49 16 62 0 14 9 50 20 81 11 32 23 78 26 103 3
25 12 59 21 75 8 17 17 41 20 55 3 14 6 30 7 35 1 6 10 24 19 42 9 18 17 38
17 44 0 7 12 41 26 77 14 35 27 73 29 82 2 10 10 29 18 42 8 13 18 38 22 56 4
17 11 32 15 32 5 0 14 17 20 39 5 21 17 44 25 51 8 7 15 19 15 27 0 8 13 39
29 68 16 29 27 56 24 59 -4 3 -1 6 6 6 7 0 10 4 6 9 -3 6 3 14 12 20 10 6 15
11 10 11 -8 0 19 52 53 105 11 17 27 44 35 62 8 17 20 35 25 38 10 6 32 50 34
68 1 4 5 6 9 5 5 -2 15 12 23 30 7 18 20 40 29 48 8 9 15 22 15 29 0 8 6 18
13 22 6 4 23 24 37 43 29 42 39 55 63 81 9 10 16 21 15 23 -3 4 40 63 63 85 9
9 18 21 20 27 5 14 78 100 142 167 26 28 47 54 47 59 0 4 7 8 15 8 8 0 15 4
15 9 0 6 20 31 45 58 25 26 45 51 45 55 0 4 4 8 10 8 5 0 38 28 74 63 54 52
111 105 211 195 7 6 19 12 25 12 6 0 9 4 6 9 -4 5 7 15 24 23 16 7 30 16 30
20 0 4 12 14 28 22 15 8 42 29 60 46 17 18 32 29 32 26 0 -7 17 5 56 41 13 12
24 19 24 16 0 -4 12 4 28 18 15 14 39 31 55 39 15 7 27 17 27 22 0 4 7 8 15 8
8 0 24 9 34 19 10 10 35 25 55 32 20 7 36 19 36 27 0 7 4 11 9 8 5 -3 26 7 47
22 22 16 42 28 46 28 3 -1 17 8 30 19 13 11 26 21 31 23 4 1 18 4 32 8 14 3
23 9 20 14 -2 4 15 13 38 20 23 6 49 18 58 26 8 7 25 15 37 17 11 2 30 11 40
20 10 9 23 17 28 17 5 0 31 11 59 24 120 57 144 66 176 72 19 4 41 12 49 19 8
7 37 18 65 24 27 7 52 17 56 22 3 5 19 12 35 15 43 7 68 16 74 25 5 8 27 13
105 25 22 4 52 13 67 20 22 11 71 21 136 26 6 1 12 5 12 10 0 4 8 8 18 8 10 0
22 3 26 7 4 4 17 8 29 9 12 1 47 5 77 9 30 4 61 7 68 8 6 0 12 4 12 8 0 5 7 6
15 3 8 -4 15 -2 15 2 0 5 12 10 28 10 91 4 197 16 206 23 6 5 19 7 29 6 9 -2
17 0 17 4 0 3 24 6 53 6 28 -1 63 2 77 5 14 4 26 4 28 0 2 -4 17 -5 35 -1z"/>
</g>
</svg>
